<svg width="60" height="60" viewBox="0 0 60 60" fill="none" xmlns="http://www.w3.org/2000/svg">
<mask id="path-1-inside-1_164_110" fill="white">
<path d="M0 30C0 13.4315 13.4315 0 30 0C46.5685 0 60 13.4315 60 30C60 46.5685 46.5685 60 30 60C13.4315 60 0 46.5685 0 30Z"/>
</mask>
<path d="M46.0607 31.0607C46.6464 30.4749 46.6464 29.5251 46.0607 28.9393L36.5147 19.3934C35.9289 18.8076 34.9792 18.8076 34.3934 19.3934C33.8076 19.9792 33.8076 20.9289 34.3934 21.5147L42.8787 30L34.3934 38.4853C33.8076 39.0711 33.8076 40.0208 34.3934 40.6066C34.9792 41.1924 35.9289 41.1924 36.5147 40.6066L46.0607 31.0607ZM15 31.5L45 31.5V28.5L15 28.5L15 31.5ZM3 30C3 15.0883 15.0883 3 30 3V-3C11.7746 -3 -3 11.7746 -3 30H3ZM30 3C44.9117 3 57 15.0883 57 30H63C63 11.7746 48.2254 -3 30 -3V3ZM57 30C57 44.9117 44.9117 57 30 57V63C48.2254 63 63 48.2254 63 30H57ZM30 57C15.0883 57 3 44.9117 3 30H-3C-3 48.2254 11.7746 63 30 63V57Z" fill="#001D3D" mask="url(#path-1-inside-1_164_110)"/>
</svg>
