<svg width="60" height="60" viewBox="0 0 60 60" fill="none" xmlns="http://www.w3.org/2000/svg">
<mask id="path-1-inside-1_164_111" fill="white">
<path d="M60 30C60 46.5685 46.5685 60 30 60C13.4315 60 0 46.5685 0 30C0 13.4315 13.4315 0 30 0C46.5685 0 60 13.4315 60 30Z"/>
</mask>
<path d="M13.9393 28.9393C13.3536 29.5251 13.3536 30.4749 13.9393 31.0607L23.4853 40.6066C24.0711 41.1924 25.0208 41.1924 25.6066 40.6066C26.1924 40.0208 26.1924 39.0711 25.6066 38.4853L17.1213 30L25.6066 21.5147C26.1924 20.9289 26.1924 19.9792 25.6066 19.3934C25.0208 18.8076 24.0711 18.8076 23.4853 19.3934L13.9393 28.9393ZM45 28.5H15V31.5H45V28.5ZM57 30C57 44.9117 44.9117 57 30 57V63C48.2254 63 63 48.2254 63 30H57ZM30 57C15.0883 57 3 44.9117 3 30H-3C-3 48.2254 11.7746 63 30 63V57ZM3 30C3 15.0883 15.0883 3 30 3V-3C11.7746 -3 -3 11.7746 -3 30H3ZM30 3C44.9117 3 57 15.0883 57 30H63C63 11.7746 48.2254 -3 30 -3V3Z" fill="#001D3D" mask="url(#path-1-inside-1_164_111)"/>
</svg>
